<?xml version="1.0" encoding="UTF-8"?>
<!DOCTYPE svg PUBLIC "-//W3C//DTD SVG 1.1//EN" "http://www.w3.org/Graphics/SVG/1.1/DTD/svg11.dtd">
<svg xmlns="http://www.w3.org/2000/svg" version="1.1" width="800px" height="800px" style="shape-rendering:geometricPrecision; text-rendering:geometricPrecision; image-rendering:optimizeQuality; fill-rule:evenodd; clip-rule:evenodd" xmlns:xlink="http://www.w3.org/1999/xlink">
<g><path style="opacity:0.997" fill="#920039" d="M 371.5,-0.5 C 390.167,-0.5 408.833,-0.5 427.5,-0.5C 565.997,13.2946 671.83,78.9613 745,196.5C 776.379,250.798 794.545,309.131 799.5,371.5C 799.5,390.167 799.5,408.833 799.5,427.5C 786.354,560.348 724.687,663.848 614.5,738C 557.072,773.421 494.738,793.921 427.5,799.5C 408.833,799.5 390.167,799.5 371.5,799.5C 231.187,785.757 124.354,718.424 51,597.5C 21.4198,544.494 4.25318,487.827 -0.5,427.5C -0.5,408.833 -0.5,390.167 -0.5,371.5C 10.496,252.024 63.1627,154.858 157.5,80C 221.03,32.748 292.363,5.91463 371.5,-0.5 Z M 233.5,233.5 C 255.5,233.5 277.5,233.5 299.5,233.5C 299.5,344.167 299.5,454.833 299.5,565.5C 277.5,565.5 255.5,565.5 233.5,565.5C 233.5,454.833 233.5,344.167 233.5,233.5 Z M 366.5,233.5 C 432.833,233.5 499.167,233.5 565.5,233.5C 565.5,255.5 565.5,277.5 565.5,299.5C 499.167,299.5 432.833,299.5 366.5,299.5C 366.5,277.5 366.5,255.5 366.5,233.5 Z M 366.5,366.5 C 432.833,366.5 499.167,366.5 565.5,366.5C 565.5,388.5 565.5,410.5 565.5,432.5C 499.167,432.5 432.833,432.5 366.5,432.5C 366.5,410.5 366.5,388.5 366.5,366.5 Z M 366.5,499.5 C 432.833,499.5 499.167,499.5 565.5,499.5C 565.5,521.5 565.5,543.5 565.5,565.5C 499.167,565.5 432.833,565.5 366.5,565.5C 366.5,543.5 366.5,521.5 366.5,499.5 Z"/></g>
</svg>
