<svg width="80" height="50" viewBox="0 0 80 50" fill="none" xmlns="http://www.w3.org/2000/svg">
<path d="M-7.62939e-06 -6.10352e-05C10.9317 -6.10352e-05 10.9317 -6.10352e-05 13.1056 2.26651C13.5575 3.25436 13.992 4.2513 14.4099 5.25575C15.0203 6.19134 15.6529 7.11103 16.3043 8.01505C17.9002 10.3274 19.4823 12.6497 21.0559 14.979C21.2691 15.2942 21.4822 15.6094 21.7019 15.9342C22.6024 17.2685 23.488 18.6078 24.3478 19.972C24.6758 19.972 25.0037 19.972 25.3416 19.972C25.9881 19.2292 25.9881 19.2292 26.6246 18.2351C27.0077 17.667 27.0077 17.667 27.3986 17.0875C27.6729 16.6735 27.9472 16.2596 28.2298 15.8331C28.81 14.9693 29.3904 14.1057 29.9709 13.2421C30.2707 12.7938 30.5706 12.3454 30.8795 11.8835C32.6489 9.24987 34.4511 6.64121 36.2477 4.02828C36.5047 3.65286 36.7616 3.27743 37.0264 2.89063C37.3668 2.3947 37.3668 2.3947 37.714 1.88875C38.2944 1.04167 38.2944 1.04167 38.7578 -6.10352e-05C42.3652 -6.10352e-05 45.9727 -6.10352e-05 49.6894 -6.10352e-05C49.6894 16.3035 49.6894 32.607 49.6894 49.4046C46.2941 49.9176 43.5889 50.2879 40.2484 49.4046C40.0845 38.3043 39.9205 27.204 39.7515 15.7674C35.2797 21.9471 35.2797 21.9471 30.8385 28.1514C30.3129 28.8882 30.3129 28.8882 29.7768 29.6398C29.1589 30.524 28.5559 31.42 27.9717 32.3293C27.5921 32.9116 27.5921 32.9116 27.205 33.5057C26.9974 33.8391 26.7899 34.1724 26.5761 34.5158C25.8385 35.2139 25.8385 35.2139 24.672 35.5382C22.6436 35.039 21.8792 33.469 20.7764 31.7319C20.5415 31.3775 20.3066 31.0231 20.0647 30.658C19.5754 29.9191 19.0895 29.1777 18.6068 28.4339C17.7126 27.0605 16.7967 25.7044 15.8777 24.3494C15.2839 23.4735 14.6944 22.5944 14.1052 21.7151C12.7424 19.7121 11.3377 17.7415 9.93788 15.7674C9.77391 26.8676 9.60993 37.9679 9.44099 49.4046C7.53832 49.74 6.02908 50.0028 4.16148 49.9958C3.79638 49.9972 3.43128 49.9985 3.05512 49.9999C1.98757 49.9301 1.98757 49.9301 -7.62939e-06 49.4046C-7.62939e-06 33.101 -7.62939e-06 16.7975 -7.62939e-06 -6.10352e-05Z" fill="white"/>
<path d="M39.8761 0C42.7777 0.171696 45.6794 0.343391 48.6689 0.520289C48.8301 7.04472 48.9913 13.5691 49.1574 20.2913C56.0891 20.2913 63.0207 20.2913 70.1624 20.2913C70.3236 13.7669 70.4848 7.24243 70.6509 0.520289C73.5525 0.520289 76.4541 0.520289 79.4437 0.520289C80.07 2.52158 80.0002 4.40734 79.9954 6.49257C79.9967 7.16787 79.9967 7.16787 79.998 7.85682C80.0001 9.34669 79.9987 10.8365 79.9971 12.3264C79.9974 13.3599 79.9979 14.3933 79.9985 15.4268C79.9992 17.5931 79.9981 19.7594 79.9959 21.9257C79.9931 24.7071 79.9947 27.4884 79.9976 30.2698C79.9994 32.4037 79.9988 34.5376 79.9975 36.6715C79.9972 37.6973 79.9976 38.7231 79.9988 39.749C80 41.1803 79.9981 42.6115 79.9954 44.0428C79.9964 44.4696 79.9974 44.8964 79.9984 45.3362C79.988 48.268 79.988 48.268 79.4437 49.4275C77.9687 49.6612 77.9687 49.6612 76.1159 49.7852C75.5082 49.8301 74.9006 49.8751 74.2745 49.9214C72.6048 49.9478 72.6048 49.9478 70.6509 49.4275C70.4897 43.0748 70.3285 36.722 70.1624 30.1768C63.2308 30.1768 56.2991 30.1768 49.1574 30.1768C48.9962 36.5295 48.835 42.8823 48.6689 49.4275C42.4689 50.0278 42.4689 50.0278 39.8761 49.4275C38.9653 48.4574 39.3258 47.0685 39.3214 45.7776C39.3224 45.3278 39.3234 44.878 39.3244 44.4146C39.3236 43.9434 39.3227 43.4723 39.3218 42.9868C39.3197 41.4212 39.3211 39.8556 39.3227 38.2901C39.3224 37.2072 39.3219 36.1243 39.3213 35.0415C39.3206 32.7688 39.3217 30.4961 39.3239 28.2234C39.3267 25.3032 39.3251 22.3829 39.3222 19.4627C39.3204 17.2257 39.321 14.9887 39.3223 12.7517C39.3226 11.6746 39.3222 10.5975 39.321 9.52046C39.3198 8.01791 39.3217 6.51541 39.3244 5.01287C39.3234 4.5631 39.3224 4.11334 39.3214 3.64994C39.3318 0.579739 39.3318 0.579739 39.8761 0Z" fill="white"/>
</svg>
