<svg width="150" height="60" viewBox="0 0 150 60" fill="none" xmlns="http://www.w3.org/2000/svg">
<path d="M8.10739 6.23999C8.98849 6.51006 9.22562 6.75852 9.82018 7.39499C9.97663 7.55989 10.1331 7.72478 10.2943 7.89468C10.6903 8.36772 10.9729 8.81751 11.2393 9.35999C11.4116 9.35999 11.5839 9.35999 11.7613 9.35999C11.7613 9.51839 11.7613 9.67679 11.7613 9.83999C11.9336 9.83999 12.1059 9.83999 12.2833 9.83999C12.6769 10.1906 12.6769 10.1906 13.0989 10.65C13.2396 10.8003 13.3802 10.9507 13.5251 11.1056C13.8493 11.52 13.8493 11.52 13.8493 12C14.0216 12 14.1938 12 14.3713 12C14.7394 12.3356 14.7394 12.3356 15.1706 12.81C15.8778 13.5745 16.5926 14.3298 17.3238 15.075C17.6201 15.3771 17.6201 15.3771 17.9223 15.6853C18.575 16.3481 19.2298 17.0091 19.8849 17.67C20.7761 18.5704 21.6553 19.4788 22.5244 20.3972C23.9255 21.8684 25.3618 23.3105 26.8013 24.75C27.7337 25.6826 28.6534 26.6234 29.554 27.5822C30.3784 28.4423 31.2329 29.2779 32.0834 30.1162C32.5599 30.6322 32.8787 31.0616 33.163 31.68C32.9746 31.8136 32.7862 31.9473 32.5921 32.085C31.6991 32.7602 30.8999 33.4974 30.1126 34.275C29.7701 34.56 29.7701 34.56 29.2481 34.56C29.1788 34.6998 29.1095 34.8397 29.0381 34.9837C28.7169 35.5359 28.3538 35.946 27.9105 36.42C24.9696 39.8485 23.5615 43.8927 24.0282 48.24C24.6878 51.7024 26.5654 54.4703 28.9871 57.12C29.5173 57.7545 30.0366 58.396 30.5531 59.04C26.4628 57.3305 22.9444 52.3586 21.2541 48.6441C19.5628 44.4658 19.7279 40.2878 21.4926 36.1791C22.3216 34.5504 23.4003 33.2004 24.6389 31.8225C25.1155 31.2556 25.1155 31.2556 25.0864 30.7191C24.6848 30.0201 24.1455 29.508 23.5551 28.935C21.1572 26.5932 21.1572 26.5932 21.1572 25.92C20.985 25.92 20.8127 25.92 20.6352 25.92C20.463 25.524 20.2907 25.128 20.1132 24.72C19.941 24.72 19.7687 24.72 19.5912 24.72C19.2221 24.3425 18.8719 23.9493 18.5309 23.55C17.5363 22.4052 16.504 21.3086 15.4265 20.2294C13.8493 18.6044 13.8493 18.6044 13.8493 18C13.6771 18 13.5048 18 13.3273 18C12.974 17.6378 12.6397 17.2598 12.316 16.875C12.0505 16.5618 12.0505 16.5618 11.7797 16.2422C11.6014 16.0303 11.4231 15.8183 11.2393 15.6C10.8921 15.1995 10.5443 14.7993 10.1954 14.4C6.42608 18.5369 5.09456 24.8861 5.57797 30.1584C6.2789 36.4091 9.00861 41.2577 13.3671 46.0219C13.8493 46.56 13.8493 46.56 14.3713 47.28C13.267 46.8653 12.4513 46.1488 11.5656 45.435C11.3213 45.2395 11.3213 45.2395 11.0721 45.04C10.7498 44.782 10.4277 44.5237 10.106 44.265C9.75269 43.9832 9.39413 43.707 9.03413 43.4325C7.93317 42.5892 7.0578 41.6895 6.20497 40.6303C5.91887 40.2777 5.62182 39.9323 5.31188 39.5972C1.35639 35.2769 -0.34622 29.236 0.0580504 23.6678C0.634291 18.6101 2.82771 13.1654 6.16725 9.10874C6.64391 8.51158 6.97246 7.86428 7.3244 7.19999C7.49666 7.12079 7.66892 7.04159 7.8464 6.95999C7.93252 6.72239 8.01865 6.48479 8.10739 6.23999Z" fill="white"/>
<path d="M67.0926 23.52C72.8345 23.52 72.8345 23.52 73.9764 24.555C74.2138 25.0061 74.442 25.4614 74.6615 25.92C74.9821 26.3472 75.3144 26.7672 75.6566 27.18C76.4948 28.2359 77.3258 29.2964 78.1523 30.36C78.2643 30.504 78.3763 30.6479 78.4917 30.7962C78.9646 31.4055 79.4298 32.0171 79.8814 32.64C80.0537 32.64 80.226 32.64 80.4034 32.64C80.743 32.3008 80.743 32.3008 81.0773 31.8469C81.2786 31.5875 81.2786 31.5875 81.4839 31.3228C81.6279 31.1338 81.772 30.9448 81.9205 30.75C82.2252 30.3556 82.5301 29.9612 82.835 29.5669C82.9925 29.3622 83.15 29.1574 83.3122 28.9465C84.2416 27.7439 85.1883 26.5527 86.1319 25.3595C86.2669 25.1881 86.4019 25.0166 86.5409 24.84C86.7197 24.6136 86.7197 24.6136 86.9021 24.3825C87.2069 23.9957 87.2069 23.9957 87.4503 23.52C89.3452 23.52 91.24 23.52 93.1923 23.52C93.1923 30.9648 93.1923 38.4096 93.1923 46.08C91.4089 46.3143 89.9879 46.4834 88.2333 46.08C88.1472 41.0112 88.0611 35.9424 87.9723 30.72C85.6235 33.5419 85.6235 33.5419 83.2907 36.375C83.0147 36.7115 83.0147 36.7115 82.733 37.0547C82.4085 37.4584 82.0918 37.8676 81.7849 38.2828C81.5855 38.5487 81.5855 38.5487 81.3822 38.82C81.2732 38.9722 81.1642 39.1244 81.0518 39.2813C80.6644 39.6 80.6644 39.6 80.0517 39.7481C78.9863 39.5202 78.5848 38.8033 78.0055 38.01C77.8822 37.8482 77.7588 37.6864 77.6317 37.5197C77.3747 37.1822 77.1195 36.8437 76.866 36.504C76.3963 35.8769 75.9152 35.2576 75.4325 34.6389C75.1206 34.2389 74.8109 33.8375 74.5015 33.436C73.7857 32.5214 73.0478 31.6215 72.3125 30.72C72.2264 35.7888 72.1403 40.8576 72.0516 46.08C71.0522 46.2332 70.2594 46.3532 69.2785 46.35C69.0867 46.3506 68.8949 46.3513 68.6973 46.3519C68.1366 46.32 68.1366 46.32 67.0926 46.08C67.0926 38.6352 67.0926 31.1904 67.0926 23.52Z" fill="white"/>
<path d="M97.7613 23.52C99.57 23.52 101.379 23.52 103.242 23.52C103.328 23.7576 103.415 23.9952 103.503 24.24C103.675 24.24 103.848 24.24 104.025 24.24C104.404 24.7097 104.404 24.7097 104.873 25.395C105.869 26.8042 106.923 28.1662 108.005 29.52C108.163 29.718 108.32 29.9159 108.482 30.1199C109.205 31.0208 109.907 31.8827 110.811 32.64C110.94 32.4024 110.94 32.4024 111.072 32.16C111.244 32.16 111.417 32.16 111.594 32.16C111.7 31.9547 111.7 31.9547 111.807 31.7452C112.127 31.1812 112.487 30.6783 112.884 30.1575C113.11 29.859 113.11 29.859 113.341 29.5545C113.671 29.1259 114.002 28.6986 114.336 28.2725C115.41 26.9 115.41 26.9 116.341 25.4438C116.876 24.587 117.226 24.0763 118.119 23.52C119.924 23.1913 121.783 23.3417 123.6 23.52C123.872 24.544 123.898 25.5368 123.895 26.5845C123.895 26.8604 123.895 26.8604 123.896 27.142C123.897 27.7484 123.897 28.3548 123.896 28.9613C123.896 29.3849 123.896 29.8084 123.896 30.232C123.897 31.1197 123.896 32.0074 123.895 32.895C123.894 34.0283 123.894 35.1615 123.896 36.2947C123.897 37.1698 123.897 38.0449 123.896 38.9199C123.896 39.3375 123.896 39.755 123.897 40.1726C123.897 40.7588 123.896 41.3451 123.895 41.9314C123.895 42.1012 123.896 42.2711 123.896 42.4462C123.891 43.67 123.768 44.8664 123.6 46.08C121.88 46.3436 120.731 46.2483 118.902 46.08C118.816 41.0112 118.73 35.9424 118.641 30.72C118.297 31.116 117.952 31.512 117.597 31.92C117.244 32.31 116.89 32.7 116.537 33.09C115.564 34.1813 114.638 35.2971 113.731 36.435C113.612 36.5843 113.493 36.7335 113.371 36.8873C113.256 37.0316 113.142 37.176 113.025 37.3247C112.914 37.4638 112.803 37.6029 112.689 37.7462C112.387 38.1463 112.119 38.5672 111.852 38.9878C111.333 39.6 111.333 39.6 110.689 39.7707C109.721 39.5208 109.438 39.0549 108.854 38.31C108.745 38.1738 108.636 38.0375 108.524 37.8971C108.151 37.4275 107.785 36.9538 107.418 36.48C107.123 36.1042 106.827 35.7286 106.531 35.3532C106.083 34.7843 105.636 34.2151 105.191 33.6437C104.479 32.7284 103.747 31.8382 102.981 30.96C102.895 30.8016 102.809 30.6432 102.72 30.48C102.634 35.628 102.548 40.776 102.459 46.08C100.632 46.32 100.632 46.32 97.7613 46.08C97.7613 38.6352 97.7613 31.1904 97.7613 23.52Z" fill="white"/>
<path d="M17.2423 8.40001C18.183 8.38609 19.1236 8.37755 20.0643 8.37001C20.4653 8.36398 20.4653 8.36398 20.8743 8.35782C21.1309 8.35628 21.3874 8.35473 21.6517 8.35314C21.8882 8.35062 22.1246 8.34811 22.3682 8.34552C22.9842 8.40001 22.9842 8.40001 23.7672 8.88001C23.7672 9.03841 23.7672 9.19681 23.7672 9.36001C23.9395 9.36001 24.1117 9.36001 24.2892 9.36001C24.6389 9.67876 24.6389 9.67876 25.0559 10.14C27.1985 12.4494 29.4567 14.6239 31.8239 16.7386C31.9977 16.8956 32.1715 17.0526 32.3505 17.2144C32.5072 17.3544 32.6639 17.4945 32.8253 17.6387C33.1631 18 33.1631 18 33.1631 18.48C33.3353 18.48 33.5076 18.48 33.6851 18.48C34.0577 18.8283 34.0577 18.8283 34.4925 19.3125C35.512 20.4149 36.6084 21.4266 37.7305 22.44C38.9804 23.5688 40.1821 24.7105 41.3248 25.9317C42.0882 26.7241 42.9118 27.4592 43.7334 28.2C44.905 29.2658 46.0491 30.3324 47.1101 31.4935C47.7683 32.1819 48.4919 32.8087 49.2133 33.4406C49.6059 33.84 49.6059 33.84 49.6059 34.32C49.4373 34.3816 49.2687 34.4432 49.0951 34.5066C42.137 37.1062 34.864 40.3308 31.4503 46.86C30.0909 49.9234 29.9695 52.5242 31.0751 55.68C31.6064 56.8362 32.2529 57.9368 32.9021 59.04C33.0777 59.3593 33.2525 59.6789 33.4241 60C29.9425 57.6594 27.7475 53.0296 27.0297 49.2291C26.9488 48.5756 26.9096 47.9375 26.8992 47.28C26.8958 47.0712 26.8924 46.8624 26.889 46.6472C26.9846 44.3306 28.0914 41.9822 29.5091 40.08C29.6814 40.08 29.8537 40.08 30.0311 40.08C30.0961 39.9417 30.161 39.8034 30.2279 39.661C30.5995 39.0428 31.0293 38.6352 31.5808 38.145C31.7608 37.9838 31.9408 37.8227 32.1262 37.6566C32.3811 37.4306 32.3811 37.4306 32.6411 37.2C32.7757 37.0707 32.9102 36.9414 33.0489 36.8081C33.5435 36.3756 34.113 36.101 34.7077 35.7994C35.3216 35.4837 35.922 35.1505 36.5234 34.815C37.7364 34.1427 38.9669 33.504 40.21 32.88C40.0808 32.7315 39.9516 32.583 39.8185 32.43C39.427 31.92 39.427 31.92 39.427 31.44C39.2547 31.44 39.0825 31.44 38.905 31.44C38.5115 31.0894 38.5115 31.0894 38.0894 30.63C37.9488 30.4797 37.8081 30.3293 37.6632 30.1744C37.339 29.76 37.339 29.76 37.339 29.28C37.1668 29.28 36.9945 29.28 36.817 29.28C36.4755 28.9271 36.1529 28.5586 35.8383 28.185C34.6349 26.7941 33.3363 25.5074 31.9945 24.2287C31.8415 24.0812 31.6885 23.9336 31.5308 23.7816C31.3927 23.6501 31.2546 23.5186 31.1123 23.3831C30.8141 23.04 30.8141 23.04 30.8141 22.56C30.5557 22.4808 30.2973 22.4016 30.0311 22.32C29.6833 21.9628 29.3546 21.5897 29.0361 21.21C28.0175 20.0342 26.9443 18.9283 25.8226 17.835C24.7476 16.7865 23.6834 15.7361 22.6621 14.6428C22.1708 14.1281 21.6659 13.626 21.1593 13.1241C17.2423 9.23934 17.2423 9.23934 17.2423 8.40001Z" fill="white"/>
<path d="M128.562 23.28C130.112 23.3592 131.663 23.4384 133.26 23.52C133.346 26.5296 133.432 29.5392 133.521 32.64C137.225 32.64 140.928 32.64 144.744 32.64C144.83 29.6304 144.916 26.6208 145.005 23.52C146.555 23.52 148.105 23.52 149.703 23.52C150.037 24.4431 150 25.313 149.998 26.2749C149.998 26.5864 149.998 26.5864 149.999 26.9042C150 27.5914 149.999 28.2787 149.998 28.9659C149.999 29.4426 149.999 29.9193 149.999 30.3961C150 31.3953 149.999 32.3946 149.998 33.3939C149.996 34.6769 149.997 35.9599 149.999 37.2429C150 38.2272 149.999 39.2115 149.999 40.1959C149.999 40.6691 149.999 41.1422 149.999 41.6154C150 42.2757 149.999 42.9359 149.998 43.5961C149.998 43.793 149.999 43.9899 149.999 44.1927C149.994 45.5451 149.994 45.5451 149.703 46.08C148.915 46.1878 148.915 46.1878 147.925 46.245C147.6 46.2657 147.275 46.2864 146.941 46.3078C146.049 46.32 146.049 46.32 145.005 46.08C144.919 43.1496 144.833 40.2192 144.744 37.2C141.04 37.2 137.337 37.2 133.521 37.2C133.435 40.1304 133.349 43.0608 133.26 46.08C129.947 46.3569 129.947 46.3569 128.562 46.08C128.075 45.6325 128.268 44.9918 128.266 44.3963C128.266 44.1889 128.267 43.9814 128.267 43.7676C128.267 43.5503 128.266 43.3329 128.266 43.109C128.265 42.3868 128.266 41.6647 128.266 40.9425C128.266 40.443 128.266 39.9435 128.266 39.444C128.265 38.3956 128.266 37.3473 128.267 36.2989C128.269 34.9519 128.268 33.6048 128.266 32.2577C128.265 31.2259 128.265 30.194 128.266 29.1621C128.266 28.6653 128.266 28.1684 128.266 27.6716C128.265 26.9785 128.266 26.2854 128.267 25.5923C128.267 25.3848 128.266 25.1774 128.266 24.9636C128.271 23.5474 128.271 23.5474 128.562 23.28Z" fill="white"/>
<path d="M52.2158 36.24C52.2158 42.576 52.2158 48.912 52.2158 55.44C49.4705 55.4474 49.4705 55.4474 46.6696 55.455C45.8212 55.4583 45.8212 55.4583 44.9556 55.4616C41.7125 55.4687 38.4881 55.3821 35.2511 55.2C35.164 54.8563 35.078 54.5124 34.9925 54.1685C34.9446 53.977 34.8966 53.7855 34.8471 53.5882C34.1595 50.3956 35.7851 47.0894 37.6663 44.4966C38.1486 43.8863 38.6267 43.2889 39.166 42.72C39.3383 42.72 39.5105 42.72 39.688 42.72C39.688 42.5616 39.688 42.4032 39.688 42.24C39.8602 42.24 40.0325 42.24 40.21 42.24C40.21 42.0816 40.21 41.9232 40.21 41.76C40.7925 41.3278 41.3719 40.9334 41.988 40.545C42.2656 40.3698 42.2656 40.3698 42.5488 40.1911C45.0687 38.6482 49.076 36.24 52.2158 36.24Z" fill="white"/>
<path d="M30.8141 11.76C37.7906 11.76 44.767 11.76 51.9548 11.76C52.1882 12.8329 52.2512 13.7977 52.2454 14.8808C52.2455 15.0706 52.2455 15.2603 52.2456 15.4559C52.2454 16.0805 52.2434 16.7051 52.2413 17.3297C52.2408 17.7638 52.2404 18.198 52.2402 18.6321C52.2392 19.7728 52.2366 20.9134 52.2337 22.0541C52.2311 23.2188 52.2299 24.3835 52.2286 25.5483C52.2258 27.8322 52.2213 30.1161 52.2158 32.4C51.9231 32.1704 51.6305 31.9407 51.338 31.7108C51.1751 31.5829 51.0121 31.455 50.8443 31.3232C49.6263 30.3519 48.5142 29.2823 47.4689 28.155C46.4914 27.1073 45.4282 26.1447 44.3552 25.1806C43.6059 24.5026 42.8935 23.8108 42.2082 23.0775C41.1665 21.9689 40.0406 20.9467 38.905 19.92C37.5942 18.7349 36.3246 17.5405 35.1265 16.2579C34.4723 15.5701 33.7525 14.9491 33.0336 14.3194C32.6411 13.92 32.6411 13.92 32.6411 13.44C32.4688 13.44 32.2966 13.44 32.1191 13.44C31.6885 12.8856 31.2578 12.3312 30.8141 11.76Z" fill="white"/>
<path d="M61.6117 5.75999C61.6117 7.66079 61.6117 9.56159 61.6117 11.52C59.4585 11.52 57.3053 11.52 55.0868 11.52C54.7573 10.6111 54.7216 9.7237 54.6627 8.77499C54.6492 8.59168 54.6358 8.40838 54.6219 8.21952C54.6105 8.04178 54.599 7.86405 54.5872 7.68092C54.5766 7.5196 54.566 7.35828 54.555 7.19208C54.5656 6.68227 54.6723 6.24854 54.8258 5.75999C55.712 5.71252 56.5983 5.66845 57.4847 5.62499C57.7352 5.61153 57.9857 5.59807 58.2437 5.5842C58.6084 5.5668 58.6084 5.5668 58.9803 5.54905C59.2031 5.53774 59.4259 5.52642 59.6554 5.51477C60.3067 5.51999 60.3067 5.51999 61.6117 5.75999Z" fill="white"/>
<path d="M58.0444 13.8881C58.2744 13.8878 58.5043 13.8875 58.7413 13.8872C59.1044 13.8886 59.1044 13.8886 59.4748 13.89C59.7138 13.8891 59.9529 13.8882 60.1992 13.8872C60.5456 13.8877 60.5456 13.8877 60.8991 13.8881C61.1106 13.8884 61.3222 13.8887 61.5402 13.889C62.1337 13.92 62.1337 13.92 63.1777 14.16C63.1777 16.0608 63.1777 17.9616 63.1777 19.92C62.3918 19.925 61.6058 19.9299 60.7961 19.935C60.5515 19.9372 60.3068 19.9394 60.0548 19.9416C58.8902 19.9452 57.7989 19.8994 56.6528 19.68C56.3562 17.8214 56.3777 16.0231 56.6528 14.16C57.0635 13.7823 57.4753 13.8889 58.0444 13.8881Z" fill="white"/>
<path d="M58.4797 0C60.1162 0 61.7526 0 63.4387 0C63.7533 3.47143 63.7533 3.47143 63.4387 4.32C62.808 4.36688 62.1774 4.41157 61.5465 4.455C61.3685 4.46846 61.1905 4.48192 61.0071 4.49578C60.113 4.55565 59.334 4.59331 58.4797 4.32C58.4285 3.8252 58.3801 3.33014 58.3329 2.835C58.3057 2.55935 58.2784 2.28369 58.2504 1.99969C58.2188 1.2 58.2188 1.2 58.4797 0Z" fill="white"/>
<path d="M51.4328 5.28C51.6178 6.49187 51.7483 7.65238 51.6938 8.88C51.2185 9.31708 50.5698 9.15177 49.9382 9.15281C49.7424 9.15189 49.5466 9.15096 49.3449 9.15C49.0512 9.15139 49.0512 9.15139 48.7515 9.15281C47.2899 9.15039 47.2899 9.15039 46.9959 8.88C46.9769 8.31525 46.9741 7.75 46.9796 7.185C46.9819 6.87532 46.9843 6.56563 46.9867 6.24656C46.9898 6.0068 46.9928 5.76703 46.9959 5.52C48.4854 5.2818 49.9227 5.25486 51.4328 5.28Z" fill="white"/>
<path d="M67.0274 9.70501C67.2844 9.72945 67.5415 9.75389 67.8063 9.77907C68.099 9.80923 68.099 9.80923 68.3976 9.84001C68.6866 10.9828 68.6267 11.8108 68.3976 12.96C67.787 13.2407 67.4127 13.2321 66.7337 13.23C66.5326 13.2306 66.3314 13.2312 66.1241 13.2319C65.5442 13.2009 65.0396 13.1073 64.4827 12.96C64.4313 12.6203 64.383 12.2802 64.3358 11.94C64.3086 11.7507 64.2813 11.5613 64.2533 11.3663C64.2216 10.7987 64.3009 10.3797 64.4827 9.84001C65.373 9.57684 66.1025 9.61389 67.0274 9.70501Z" fill="white"/>
<path d="M33.4241 36.48C33.6825 36.5592 33.9408 36.6384 34.2071 36.72C34.0348 36.8784 33.8625 37.0368 33.6851 37.2C33.5989 36.9624 33.5128 36.7248 33.4241 36.48ZM32.6411 37.2C32.8133 37.2792 32.9856 37.3584 33.1631 37.44C32.9854 37.5885 32.9854 37.5885 32.8042 37.74C32.3646 38.1754 32.121 38.5807 31.8581 39.12C31.5997 39.0408 31.3413 38.9616 31.0751 38.88C31.5919 38.3256 32.1086 37.7712 32.6411 37.2Z" fill="white"/>
</svg>
