<svg width="79" height="250" viewBox="0 0 79 250" fill="none" xmlns="http://www.w3.org/2000/svg">
<path d="M65.331 0C66.8651 1.32996 67.4034 2.37535 67.917 4.32818C68.0608 4.87277 68.2045 5.41737 68.3526 5.97847C68.5076 6.5987 68.6618 7.21913 68.8153 7.83972C68.899 8.17083 68.9826 8.50194 69.0688 8.84308C72.0396 20.6542 74.4767 32.713 75.6891 44.8377C75.8395 46.2552 76.0321 47.6669 76.2195 49.0799C77.7251 61.0769 78.0431 73.1055 78.0424 85.1859C78.0433 86.9008 78.0513 88.6155 78.0595 90.3303C78.0861 101.919 77.8548 112.416 69.2509 121.08C66.005 123.758 61.9687 124.312 57.8724 124.102C52.7155 123.374 47.6722 120.612 42.9472 118.552C40.0047 117.283 37.0751 116.234 33.9721 115.418C33.6746 115.334 33.377 115.251 33.0704 115.165C30.1701 114.536 26.9223 114.821 24.38 116.401C22.5809 117.987 21.9142 120.108 21.3415 122.387C21.0654 127.039 21.9828 131.591 22.7985 136.152C23.5289 140.393 23.9754 144.647 24.3902 148.927C24.4263 149.299 24.4624 149.671 24.4996 150.055C24.7221 152.359 24.9396 154.663 25.1553 156.968C25.4583 160.205 25.7667 163.44 26.078 166.676C26.1122 167.033 26.1464 167.391 26.1817 167.76C26.9205 175.446 27.7971 183.116 28.6995 190.785C29.8904 200.977 30.6242 211.016 30.5422 221.282C30.5379 222.26 30.5339 223.239 30.5303 224.217C30.5209 226.569 30.5065 228.92 30.4878 231.272C30.6344 230.921 30.6344 230.921 30.7839 230.564C31.2342 229.489 31.6853 228.413 32.1364 227.338C32.29 226.971 32.4437 226.604 32.602 226.225C33.8606 223.228 35.2018 220.282 36.6017 217.348C37.0754 216.348 37.5409 215.345 38.006 214.342C38.349 213.606 38.6921 212.871 39.0353 212.135C39.1922 211.795 39.3491 211.455 39.5107 211.104C41.6902 206.46 41.6902 206.46 43.1185 204.704C44.3162 204.459 44.3162 204.459 45.2962 204.704C45.4399 204.848 45.5836 204.991 45.7317 205.139C45.5581 208.059 44.4685 210.629 43.4179 213.333C43.2138 213.86 43.0097 214.387 42.7995 214.93C42.4505 215.83 42.1006 216.728 41.7489 217.626C40.9896 219.566 40.2411 221.509 39.5025 223.457C38.5844 225.877 37.6535 228.293 36.7156 230.706C36.3417 231.674 35.9717 232.643 35.6061 233.614C33.456 239.31 31.4915 243.653 27.0035 247.822C26.4105 248.538 25.8256 249.261 25.2613 250C23.4167 249.787 22.1672 248.666 20.9059 247.387C20.4603 246.667 20.0234 245.942 19.5993 245.209C19.1277 244.859 19.1277 244.859 18.6466 244.501C18.2558 244.205 18.2558 244.205 17.8571 243.902C17.8571 243.471 17.8571 243.04 17.8571 242.596C17.6163 242.501 17.3754 242.406 17.1273 242.308C15.7933 241.539 14.8675 240.494 13.8556 239.356C13.6448 239.123 13.4339 238.889 13.2167 238.649C11.5679 236.807 9.99617 234.909 8.4471 232.983C7.01005 231.225 5.52322 229.511 4.028 227.802C0 223.156 0 223.156 0 221.363C0.612262 219.986 1.19216 219.333 2.5588 218.696C3.92256 218.615 4.54509 219.18 5.66202 219.948C6.36632 220.669 7.04676 221.415 7.70361 222.18C8.91311 223.67 8.91311 223.67 10.453 224.739C10.6596 225.089 10.8662 225.439 11.0791 225.8C11.7146 227.019 11.7146 227.019 13.0662 227.787C13.2099 228.219 13.3537 228.65 13.5017 229.094C14.2227 229.681 14.9494 230.261 15.6794 230.836C16.335 231.572 16.9697 232.326 17.5849 233.096C17.9207 233.513 18.2564 233.931 18.6023 234.361C19.7745 235.85 20.9335 237.347 22.0764 238.858C22.3594 239.199 22.3594 239.199 22.6481 239.547C22.7918 239.547 22.9355 239.547 23.0836 239.547C24.7088 227.75 25.0478 215.704 23.9547 203.833C23.9195 203.449 23.8842 203.065 23.8479 202.67C23.2271 196.105 22.4654 189.554 21.7329 183.001C21.6776 182.507 21.6224 182.013 21.5655 181.504C21.452 180.489 21.3385 179.474 21.2249 178.459C20.3123 170.294 19.4425 162.125 18.626 153.95C18.5393 153.082 18.4526 152.214 18.3658 151.347C18.3237 150.925 18.2816 150.503 18.2382 150.069C17.9559 147.265 17.6514 144.463 17.3348 141.663C16.6177 135.265 15.9611 128.913 15.9244 122.468C15.92 121.988 15.9157 121.508 15.9111 121.013C15.9513 117.379 16.3074 113.885 18.8099 111.09C21.7765 108.419 25.6069 107.848 29.4687 107.895C33.9953 108.265 37.9253 110.333 41.8912 112.399C50.6831 117.371 50.6831 117.371 60.2355 118.222C62.9782 117.161 65.0176 115.296 67.0732 113.24C67.3578 112.956 67.6425 112.671 67.9357 112.378C75.58 104.212 73.2628 87.9672 73.2524 77.635C73.252 77.1078 73.2516 76.5805 73.2512 76.0373C73.2119 52.5469 70.8011 28.8709 64.877 6.08948C64.7523 5.59584 64.6275 5.10219 64.4991 4.59359C64.3297 3.95249 64.3297 3.95249 64.157 3.29845C64.0052 2.0151 64.1938 1.50045 64.8955 0.43554C65.0392 0.291812 65.1829 0.148084 65.331 0Z" fill="#DE4A33"/>
</svg>
